PathFileType	4	(X/Y/Z)	pose_F01_0-96.trc
DataRate	CameraRate	NumFrames	NumMarkers	Units	OrigDataRate	OrigDataStartFrame	OrigNumFrames
30	30	7	21	m	30	12	96
Frame#	Time	CHip			RHip			RKnee			RAnkle			RBigToe			RSmallToe			RHeel			LHip			LKnee			LAnkle			LBigToe			LSmallToe			LHeel			Neck			Nose			RShoulder			RElbow			RWrist			LShoulder			LElbow			LWrist			
		X1	Y1	Z1	X2	Y2	Z2	X3	Y3	Z3	X4	Y4	Z4	X5	Y5	Z5	X6	Y6	Z6	X7	Y7	Z7	X8	Y8	Z8	X9	Y9	Z9	X10	Y10	Z10	X11	Y11	Z11	X12	Y12	Z12	X13	Y13	Z13	X14	Y14	Z14	X15	Y15	Z15	X16	Y16	Z16	X17	Y17	Z17	X18	Y18	Z18	X19	Y19	Z19	X20	Y20	Z20	X21	Y21	Z21	
12	0.4	-0.17485347086392772	1.8859678259976138	-0.6067389246861524	-0.1880534024790378	1.8836154362391506	-0.5365690192076193	-0.18008273715153217	1.7415930366098313	-0.5221094461719347	-0.1816191860048292	1.6050126118846053	-0.49866823589064163	-0.2086599111062344	1.56697581617331	-0.4612124726320294	-0.20425288043980416	1.574954239562471	-0.43926433029819145	-0.17911984012854562	1.5950438690264255	-0.5046631429477306	-0.16068675735607074	1.8892047452431942	-0.6681639845923273	-0.15251711507467028	1.7425989542788076	-0.6722450650149313	-0.15330465441145552	1.5983003446728454	-0.6582180623491158	-0.17782831920045797	1.5581498538777305	-0.6454390746258594	-0.16627372406048532	1.5642736318624375	-0.682753084185095	-0.14755091717411062	1.589766542062288	-0.6462128344274476	-0.16374476837190763	2.045117547392127	-0.6168266825399845	-0.18699422390596893	2.109560027374902	-0.6083027867412014	-0.1787402732273404	2.0418985860547356	-0.5257115955055516	-0.18014740400695406	1.9591594683734304	-0.49115227337484835	-0.20136075020579242	1.89031310189036	-0.4563384838252438	-0.14293671256815152	2.0510285189696713	-0.7151665714122297	-0.14047042516007796	1.969204136119634	-0.7301582117404553	-0.1437361624496866	1.8939438918394094	-0.7438223681075867
13	0.43333333333333335	-0.17494944456960268	1.8833655703725136	-0.6063338772460457	-0.190178521445266	1.882324548845307	-0.5341672519891226	-0.18006301531736013	1.7416189997747922	-0.5221101899487144	-0.18131614882315034	1.6062624551507174	-0.4993231378596242	-0.20877991326038284	1.5680044625890652	-0.4609627278284434	-0.20414486663876208	1.5744988980384025	-0.43925396512074494	-0.17665222124363972	1.5951473047026075	-0.5077386699213319	-0.16078502840931272	1.8865959531420082	-0.6678156804901145	-0.15577841126057956	1.7424648868494137	-0.6728247071048912	-0.15594141184681262	1.6022589180606157	-0.6601558758402107	-0.17778278567576603	1.5582895122697338	-0.6453414769747635	-0.1659351963783153	1.565583182330162	-0.6833677120881314	-0.14823441293355283	1.5911471683614882	-0.6499785392380116	-0.16377108984373215	2.046327518477615	-0.6172601283505393	-0.185023485965347	2.1096090793726336	-0.6103816332446037	-0.17883016994749384	2.0408125057717927	-0.5257888067619089	-0.18007155658682697	1.9616952436367008	-0.4916651306990511	-0.20234845539136018	1.8953257700939883	-0.45171523404332686	-0.1429374471720613	2.051034402736031	-0.7151130059325472	-0.13593544925044201	1.966766754255544	-0.7342391382124686	-0.14425479655419393	1.8901695323327912	-0.7463191436531866
14	0.4666666666666667	-0.17481300878837042	1.884490914219486	-0.6063894854539708	-0.19005571577850755	1.8809582510951928	-0.5338742773968148	-0.18020083949048762	1.7430883356063422	-0.5221771815252609	-0.1813298874921401	1.6063348744451411	-0.4992937951774835	-0.2066842008561057	1.5671045405956319	-0.46329861261347344	-0.20425712246619487	1.5751251231498173	-0.43931822714556445	-0.17679523382060966	1.5962061129832354	-0.507518446428935	-0.16075937413093316	1.8851735923030346	-0.6674744181942494	-0.1545479984174848	1.7422758664379538	-0.6699709780853971	-0.15600468807024126	1.5995502295730035	-0.6597708483635952	-0.17586540548112303	1.5569268267507483	-0.647019709800254	-0.16394196003263067	1.5639311679776682	-0.68498182534182	-0.14848970585503865	1.5896630518029877	-0.6493940202716445	-0.16378049651037946	2.046391479587529	-0.6173087758922289	-0.18700498500133758	2.109559359385061	-0.6083241825353056	-0.17874057658476997	2.041921676598747	-0.5257621813966524	-0.17912724355891538	1.9593393699071047	-0.4966105627530638	-0.20612401508382658	1.8952338877930677	-0.45587904872333757	-0.14285163668496034	2.0522542930044283	-0.715078570180793	-0.14101104214574484	1.970259529925574	-0.733060596335281	-0.1515723057672858	1.8923492106210886	-0.7425546244225731
15	0.5	-0.17471391914731962	1.8856877365089248	-0.6066477596210804	-0.18803700556738512	1.8836130810817804	-0.5366342808872495	-0.18007615549138362	1.741577993970936	-0.5221322778640731	-0.18062638869441433	1.6050524158713133	-0.4955787437863752	-0.2091711030225432	1.5672856833375675	-0.46030888493701794	-0.20330525836479568	1.5751540885502384	-0.43602513595982045	-0.1770518594286815	1.5950421307268847	-0.5068764698074258	-0.16268996234247585	1.888804256928411	-0.6658133294589654	-0.1554320175161336	1.7424603638687104	-0.6731030727680174	-0.15419298944590523	1.5982997176567535	-0.6613407599519168	-0.17793559042517568	1.5554224120718287	-0.645076582286613	-0.16875469238455615	1.5628322896462152	-0.6799983502579565	-0.1468107703736507	1.587133639935086	-0.6505021445755654	-0.16369371878719877	2.0475282888979023	-0.6172481869894347	-0.18587608792294763	2.109751044681857	-0.6133838749351166	-0.17876171017733627	2.0432639140993327	-0.5262334977309522	-0.17993047961864156	1.9607062558511417	-0.4998273583857764	-0.21332138092399264	1.9008458365289194	-0.4648482896758739	-0.14284239902307946	2.0522068517483825	-0.7151824434365088	-0.14429247036470513	1.9678709572950939	-0.7337974477382216	-0.15948178512979805	1.8897325894837582	-0.7383629028628754
16	0.5333333333333333	-0.17908642793540827	1.8842776515244906	-0.6018461725485329	-0.19121006971650423	1.8798954144007616	-0.5368616614534072	-0.18221466876494902	1.740232850931432	-0.519645468085207	-0.18049438511253854	1.6036673894014328	-0.4956842115390956	-0.20554758899380726	1.5666379493763192	-0.4599927681509258	-0.20296854759108113	1.5761822299492818	-0.4365576292665993	-0.17907041059269074	1.5946978443328819	-0.5046210668744826	-0.16502746475287605	1.8861294732419862	-0.6628995236823249	-0.1547412273965933	1.739695146753867	-0.6695322186273269	-0.1562814069069975	1.5980755051161617	-0.6591002770657849	-0.18026245979543742	1.5567255991285696	-0.6425522581352513	-0.1688492943776406	1.563003246733296	-0.6798544816491512	-0.14873574358473837	1.588701333770475	-0.6488010863762718	-0.16462751780042617	2.0465667236908773	-0.6203219608960207	-0.1858949604726306	2.1110224945400184	-0.6139461192449535	-0.17962324661285428	2.0434140558067977	-0.5293322247051475	-0.17716067590081325	1.9660427273964474	-0.5006446212480278	-0.21579320323179155	1.926201773356156	-0.46987999863064034	-0.1438076061736419	2.0522582300982686	-0.7186337148645119	-0.14651832700794432	1.9716529429292429	-0.7321132155753188	-0.16637194916807113	1.8976624826903121	-0.7324891741256974
17	0.5666666666666667	-0.17932493843531297	1.8845245031557778	-0.6018005664696201	-0.19047744523752666	1.882569298056923	-0.5340962793795099	-0.18292732071220144	1.739307386462642	-0.5188238900873975	-0.18066598804842515	1.604937058946887	-0.49551831582981126	-0.20852653867932477	1.5664243733355059	-0.46110244633098896	-0.20303619112525031	1.5736529607752583	-0.4362568796499634	-0.177139112160692	1.595109046522453	-0.5067884980342838	-0.16537059812063346	1.8877374753691685	-0.6631764609282413	-0.15567970884242974	1.7437886058748218	-0.6730963991602447	-0.15602707903700927	1.5995410158383436	-0.6597751556584899	-0.17783623291234	1.5554523939580474	-0.6451792166498593	-0.166168432196849	1.563922150358091	-0.6828545103608077	-0.14849679340579516	1.5899996713450946	-0.6494015479606576	-0.16374046015645852	2.0488529966067697	-0.6177463196326601	-0.18587041926117856	2.1111201481959436	-0.6139310011888961	-0.17873562651649508	2.0433380878776704	-0.5263796329256755	-0.17693070794917906	1.964524592375166	-0.4998117624200084	-0.21237524463342602	1.9571164705863815	-0.491141693364026	-0.14502245691644527	2.053314090994456	-0.7133527309280003	-0.1494430941120488	1.9754543329379217	-0.733168939488184	-0.1806691783574705	1.902456917039125	-0.7225873329637985
18	0.6	-0.17619193729595536	1.8970429701204332	-0.6058369508566807	-0.18749099019891688	1.8925409617938955	-0.5378564333264828	-0.18577549183711786	1.7488774174391613	-0.5168143956431251	-0.18142656772892676	1.6062616577485227	-0.4991546813403468	-0.20795864108309176	1.5657561849753359	-0.45718024676368196	-0.20520377571920245	1.574857243005543	-0.43379254241124426	-0.17894855212156083	1.5965490120208077	-0.5052200196259803	-0.16411278051054598	1.8987843004420353	-0.6646654440204944	-0.16034626953197958	1.7559247241340286	-0.6653956192316628	-0.15627993626785242	1.6010709607050324	-0.6595746233792744	-0.17797057767938507	1.556722758779443	-0.6448278799628261	-0.16614124248226272	1.5639996852884084	-0.6827789308639177	-0.14856405160460187	1.5901237299839213	-0.6494543209688001	-0.16367940373539708	2.048888610529443	-0.6171226000908648	-0.1870100999035201	2.1109600576736685	-0.6088850012094401	-0.1786225289737739	2.0444139845282785	-0.5261654514159291	-0.1929710099389683	1.9600808091139932	-0.48094705261729054	-0.2162231348088172	1.9996471831823852	-0.4965250818203673	-0.14594924596216857	2.053471033271269	-0.7162736917714482	-0.15458605055523306	1.980714272877356	-0.7322832483430418	-0.1909443959416192	1.9098914827980469	-0.7204481340757221
